<mxfile host="app.diagrams.net" agent="Mozilla/5.0 (Windows NT 10.0; Win64; x64) AppleWebKit/537.36 (KHTML, like Gecko) Chrome/130.0.0.0 Safari/537.36" version="24.8.1">
  <diagram id="eeevKGd0vNbHc6JBIhbM" name="Page-1">
    <mxGraphModel dx="955" dy="1286" grid="0" gridSize="10" guides="1" tooltips="1" connect="1" arrows="1" fold="1" page="0" pageScale="1" pageWidth="850" pageHeight="1100" math="0" shadow="0">
      <root>
        <mxCell id="0" />
        <mxCell id="1" parent="0" />
        <mxCell id="rjAFv3yzRbd-OQrE5XhD-11" value="" style="rounded=0;whiteSpace=wrap;html=1;" vertex="1" parent="1">
          <mxGeometry x="108.5" y="-219" width="306.5" height="60" as="geometry" />
        </mxCell>
        <mxCell id="rjAFv3yzRbd-OQrE5XhD-12" value="" style="rounded=0;whiteSpace=wrap;html=1;" vertex="1" parent="1">
          <mxGeometry x="113" y="-216" width="233" height="54" as="geometry" />
        </mxCell>
        <mxCell id="rjAFv3yzRbd-OQrE5XhD-4" value="" style="rounded=0;whiteSpace=wrap;html=1;" vertex="1" parent="1">
          <mxGeometry x="-114.5" y="-316.5" width="223.5" height="92.5" as="geometry" />
        </mxCell>
        <mxCell id="rjAFv3yzRbd-OQrE5XhD-9" value="" style="rounded=0;whiteSpace=wrap;html=1;" vertex="1" parent="1">
          <mxGeometry x="116" y="-316.5" width="299" height="90.5" as="geometry" />
        </mxCell>
        <mxCell id="rjAFv3yzRbd-OQrE5XhD-8" value="&lt;h1 style=&quot;margin-top: 0px;&quot;&gt;Contact Details&lt;/h1&gt;&lt;p&gt;Lorem ipsum dolor sit amet, consectetur adipisicing elit, sed do eiusmod tempor incididunt ut labore et dolore magna aliqua.&lt;/p&gt;&lt;p&gt;&lt;br&gt;&lt;/p&gt;" style="text;html=1;whiteSpace=wrap;overflow=hidden;rounded=0;" vertex="1" parent="1">
          <mxGeometry x="-110" y="-322" width="265" height="94.5" as="geometry" />
        </mxCell>
        <mxCell id="SJr62Rq2E9zvQ8nYWQL3-14" value="" style="rounded=0;whiteSpace=wrap;html=1;" parent="1" vertex="1">
          <mxGeometry x="-117" y="-466" width="535" height="102" as="geometry" />
        </mxCell>
        <mxCell id="SJr62Rq2E9zvQ8nYWQL3-27" value="" style="ellipse;shape=cloud;whiteSpace=wrap;html=1;" parent="1" vertex="1">
          <mxGeometry x="-121" y="-457.25" width="94" height="52.25" as="geometry" />
        </mxCell>
        <mxCell id="SJr62Rq2E9zvQ8nYWQL3-26" value="" style="ellipse;shape=cloud;whiteSpace=wrap;html=1;" parent="1" vertex="1">
          <mxGeometry x="89.5" y="-283" width="120" height="80" as="geometry" />
        </mxCell>
        <mxCell id="SJr62Rq2E9zvQ8nYWQL3-25" value="" style="ellipse;shape=cloud;whiteSpace=wrap;html=1;" parent="1" vertex="1">
          <mxGeometry x="90.5" y="-455.5" width="120" height="80" as="geometry" />
        </mxCell>
        <mxCell id="SJr62Rq2E9zvQ8nYWQL3-16" value="Logo" style="text;strokeColor=none;fillColor=none;html=1;align=center;verticalAlign=middle;whiteSpace=wrap;rounded=0;fontSize=16;" parent="1" vertex="1">
          <mxGeometry x="-95.5" y="-444.5" width="42" height="30" as="geometry" />
        </mxCell>
        <mxCell id="SJr62Rq2E9zvQ8nYWQL3-17" value="Business Name" style="text;strokeColor=none;fillColor=none;html=1;align=center;verticalAlign=middle;whiteSpace=wrap;rounded=0;fontSize=16;" parent="1" vertex="1">
          <mxGeometry x="-118" y="-410" width="121" height="30" as="geometry" />
        </mxCell>
        <mxCell id="SJr62Rq2E9zvQ8nYWQL3-18" value="Short tagline" style="text;strokeColor=none;fillColor=none;html=1;align=center;verticalAlign=middle;whiteSpace=wrap;rounded=0;fontSize=16;" parent="1" vertex="1">
          <mxGeometry x="-133" y="-390" width="131" height="30" as="geometry" />
        </mxCell>
        <mxCell id="SJr62Rq2E9zvQ8nYWQL3-19" value="HEADER" style="text;strokeColor=none;fillColor=none;html=1;align=center;verticalAlign=middle;whiteSpace=wrap;rounded=0;fontSize=16;" parent="1" vertex="1">
          <mxGeometry x="120.5" y="-428.5" width="60" height="30" as="geometry" />
        </mxCell>
        <mxCell id="SJr62Rq2E9zvQ8nYWQL3-20" value="" style="rounded=0;whiteSpace=wrap;html=1;" parent="1" vertex="1">
          <mxGeometry x="-117" y="-359" width="535" height="37" as="geometry" />
        </mxCell>
        <mxCell id="SJr62Rq2E9zvQ8nYWQL3-21" value="Navs" style="text;strokeColor=none;fillColor=none;html=1;align=center;verticalAlign=middle;whiteSpace=wrap;rounded=0;fontSize=16;" parent="1" vertex="1">
          <mxGeometry x="120.5" y="-355.5" width="60" height="30" as="geometry" />
        </mxCell>
        <mxCell id="SJr62Rq2E9zvQ8nYWQL3-24" value="BODY" style="text;strokeColor=none;fillColor=none;html=1;align=center;verticalAlign=middle;whiteSpace=wrap;rounded=0;fontSize=16;" parent="1" vertex="1">
          <mxGeometry x="119.5" y="-254.5" width="60" height="30" as="geometry" />
        </mxCell>
        <mxCell id="SJr62Rq2E9zvQ8nYWQL3-28" value="" style="rounded=0;whiteSpace=wrap;html=1;" parent="1" vertex="1">
          <mxGeometry x="-118" y="-151" width="535" height="60" as="geometry" />
        </mxCell>
        <mxCell id="SJr62Rq2E9zvQ8nYWQL3-29" value="" style="ellipse;shape=cloud;whiteSpace=wrap;html=1;" parent="1" vertex="1">
          <mxGeometry x="80" y="-154" width="141" height="62" as="geometry" />
        </mxCell>
        <mxCell id="SJr62Rq2E9zvQ8nYWQL3-30" value="FOOTER" style="text;strokeColor=none;fillColor=none;html=1;align=center;verticalAlign=middle;whiteSpace=wrap;rounded=0;fontSize=16;" parent="1" vertex="1">
          <mxGeometry x="120.5" y="-135" width="60" height="30" as="geometry" />
        </mxCell>
        <mxCell id="rjAFv3yzRbd-OQrE5XhD-7" value="Embed Location Map" style="text;strokeColor=none;fillColor=none;html=1;align=center;verticalAlign=middle;whiteSpace=wrap;rounded=0;fontSize=16;" vertex="1" parent="1">
          <mxGeometry x="187" y="-283" width="157" height="30" as="geometry" />
        </mxCell>
        <mxCell id="rjAFv3yzRbd-OQrE5XhD-10" value="&lt;p style=&quot;forced-color-adjust: none;&quot;&gt;&lt;b&gt;Return Policy:&lt;/b&gt;&lt;/p&gt;&lt;p style=&quot;forced-color-adjust: none;&quot;&gt;ipsum dolor sit amet, consectetur adipisicing elit, sed do eiusmod tempor incididunt ut.&lt;/p&gt;&lt;p style=&quot;forced-color-adjust: none;&quot;&gt;&lt;br style=&quot;forced-color-adjust: none; color: rgb(0, 0, 0); font-family: Helvetica; font-size: 12px; font-style: normal; font-variant-ligatures: normal; font-variant-caps: normal; font-weight: 400; letter-spacing: normal; orphans: 2; text-align: left; text-indent: 0px; text-transform: none; widows: 2; word-spacing: 0px; -webkit-text-stroke-width: 0px; white-space: normal; background-color: rgb(255, 255, 255); text-decoration-thickness: initial; text-decoration-style: initial; text-decoration-color: initial;&quot;&gt;&lt;br&gt;&lt;br&gt;&lt;/p&gt;" style="text;whiteSpace=wrap;html=1;" vertex="1" parent="1">
          <mxGeometry x="-114.5" y="-240" width="214" height="130" as="geometry" />
        </mxCell>
        <mxCell id="rjAFv3yzRbd-OQrE5XhD-13" value="Message Box" style="text;strokeColor=none;fillColor=none;html=1;align=center;verticalAlign=middle;whiteSpace=wrap;rounded=0;fontSize=16;" vertex="1" parent="1">
          <mxGeometry x="125" y="-204" width="207" height="30" as="geometry" />
        </mxCell>
        <mxCell id="rjAFv3yzRbd-OQrE5XhD-14" value="" style="rounded=0;whiteSpace=wrap;html=1;" vertex="1" parent="1">
          <mxGeometry x="349" y="-208" width="63" height="42" as="geometry" />
        </mxCell>
        <mxCell id="rjAFv3yzRbd-OQrE5XhD-15" value="Send&lt;div&gt;Box&lt;/div&gt;" style="text;strokeColor=none;fillColor=none;html=1;align=center;verticalAlign=middle;whiteSpace=wrap;rounded=0;fontSize=16;" vertex="1" parent="1">
          <mxGeometry x="350" y="-213" width="60" height="54" as="geometry" />
        </mxCell>
      </root>
    </mxGraphModel>
  </diagram>
</mxfile>
